# xmcd CD database file
#
# Track frame offsets:
#	150
#	23227
#	42860
#	56268
#	81329
#	99478
#	132301
#	153485
#	172109
#	198940
#	217636
#	250344
#	287909
#
# Disc length: 4060 seconds
#
# Revision: 0
# Processed by: cddbd v1.5.1PL2 Copyright (c) Steve Scherf et al.
# Submitted via: CDex 1.51
#
DISCID=b00fda0d
DTITLE=Various Artist - the italian way2
DYEAR=2006
DGENRE=Jazz
TTITLE0=struzzi cadenti-gabriele mirabassi
TTITLE1=l amico di cordoba-javier girotto
TTITLE2=her cab-gianluigi trovesi
TTITLE3=doctor k-flavio boltro
TTITLE4=agora tà-barbara casini
TTITLE5=cheek to cheek-paolo fresu
TTITLE6=another one bites the dust-high five
TTITLE7=meglio di cosi-cristiana polegri
TTITLE8=tico tico-danilo rea
TTITLE9=come un ritratto-rita marcotulli
TTITLE10=l amico del vento-stefano cantini
TTITLE11=il bacio della tarantola-egea orchestra
TTITLE12=lascia che io pianga-paolo fresu
EXTD=YEAR: 2006
EXTT0=
EXTT1=
EXTT2=
EXTT3=
EXTT4=
EXTT5=
EXTT6=
EXTT7=
EXTT8=
EXTT9=
EXTT10=
EXTT11=
EXTT12=
PLAYORDER=
